<?xml version="1.0" encoding="utf-8"?>
<svg version="1.1" id="Layer_1" xmlns="http://www.w3.org/2000/svg" xmlns:xlink="http://www.w3.org/1999/xlink" x="0px" y="0px"
	 viewBox="0 0 482.719 196.487" style="enable-background:new 0 0 482.719 196.487;"
	 xml:space="preserve">
    <path fill="none" stroke="rgb(255, 255, 255, 0.5)" stroke-linecap="round" stroke-linejoin="round" stroke-width="15" width="520" height="520" 
		    d="M76.043,190.614c0-1.417,2.948-3.033,4.28-3.827c2.098-1.191,3.912-1.531,5.556,0.34
			C89.621,191.38,78.197,191.862,76.043,190.614z M99.741,159.943c2.211-0.255,4.564-0.085,6.661,0.482
			c2.126,0.595,3.827,1.247,4.365,3.118c1.616,5.584-3.061,18.142-6.35,23.131c-2.154,3.317-4.195,5.698-9.836,3.855
			c-1.814-0.567-3.713-1.474-5.159-2.353c-5.187-3.175-8.731-7.625-5.839-14.258c1.899-4.309,6.293-10.006,10.205-12.331
			C95.262,160.737,97.756,160.199,99.741,159.943z M35.621,72.126c-0.255,0.567-0.992,1.446-1.389,2.013
			c-8.929,12.926-8.674,26.419-2.693,40.791c5.386,13.039,15.449,22.706,26.391,29.168c5.953,3.515,11.849,6.236,18.255,9.439
			c2.551,1.304,7.172,3.543,7.795,6.038c0.567,2.296-2.381,8.702-3.26,10.488c-1.616,3.203-3.402,6.009-5.329,8.532
			c-1.077,1.361-1.871,2.353-3.288,3.628c-1.531,1.389-2.381,1.616-5.017,2.098c-5.981,1.106-12.529,1.219-18.567,2.211
			c-1.559,0.227-4.734,0.539-4.932,2.154c1.701,1.843,16.157,1.672,21.231,2.75c3.458,0.709,3.033,2.013,11.565,3.09
			c5.868,0.737,11.934,0.964,17.915,1.219c3.912,0.17,15.591,0.907,18.567,0.709c1.106-2.466-0.964-11.849,3.6-22.535
			c2.523-5.924,5.499-12.019,8.391-17.773c2.239-4.479,6.378-13.465,8.079-18.085c4.394-11.934,6.775-33.024-0.028-43.767
			c-3.317-5.244-8.107-8.561-14.117-12.047c-17.49-10.091-29.083-6.151-31.351-14.372c-3.572-12.898-4.337-33.392-18.142-40.734
			c-12.047-6.406-31.521-3.033-42.491,2.835C14.56,36.495,13.879,44.97,11.81,47.663c-1.531,1.984-7.682,6.548-10.035,9.581
			c-5.216,6.661,1.446,3.515,14.939,7.512C20.427,65.833,33.325,69.887,35.621,72.126z"/>
</svg>
